<svg xmlns="http://www.w3.org/2000/svg" viewBox="0 0 90 90"><defs><style>.cls-1{fill:#ffd900;}.cls-1,.cls-2{fill-rule:evenodd;}.cls-2{fill:#f0f0f0;}</style></defs><title>sun-cloud</title><g id="sun-cloud"><path class="cls-1" d="M77,45.15a32.87,32.87,0,0,1-10.7,24.68A35.05,35.05,0,0,1,41,80,35.32,35.32,0,0,1,15.47,69.83,33.21,33.21,0,0,1,5,45.15,33.57,33.57,0,0,1,15.47,20.29,35.12,35.12,0,0,1,41,10,34.86,34.86,0,0,1,66.34,20.29,33.22,33.22,0,0,1,77,45.15Z"/><path class="cls-2" d="M85,53.92a13.83,13.83,0,0,1-4.34,10.17,14.54,14.54,0,0,1-9.9,4.22H52.63a10.87,10.87,0,0,1-7.35-3.37A10.44,10.44,0,0,1,42,57.14a10.93,10.93,0,0,1,3.24-7.88,11.07,11.07,0,0,1,8-3.14,13.17,13.17,0,0,1,4.23.67,9.63,9.63,0,0,1,2.13-3.07,15,15,0,0,1,10.51-4.18A14.55,14.55,0,0,1,85,53.92Z"/></g></svg>